<?xml version="1.0" encoding="iso-8859-1"?>
<!-- Generator: Adobe Illustrator 20.1.0, SVG Export Plug-In . SVG Version: 6.00 Build 0)  -->
<svg version="1.1" id="Layer_1" xmlns="http://www.w3.org/2000/svg" xmlns:xlink="http://www.w3.org/1999/xlink" x="0px" y="0px"
	 viewBox="0 0 1024 1024" style="enable-background:new 0 0 1024 1024;" xml:space="preserve">
<path style="fill:#231F20;" d="M894.204,1024H129.796C58.112,1024,0,965.888,0,894.204V129.796C0,58.112,58.112,0,129.796,0h764.408
	C965.888,0,1024,58.112,1024,129.796v764.408C1024,965.888,965.888,1024,894.204,1024z"/>
<g>
	<path style="fill:#808080;" d="M736.047,272.853L736.047,272.853c-9.616,8.414-10.591,23.03-2.178,32.647l39.779,45.471v114.723
		c0,12.787,10.366,23.153,23.153,23.153v184.369c0,18.805-14.592,34.844-33.384,35.558c-19.758,0.751-36.075-15.11-36.075-34.704
		V442.541c0-31.968-25.915-57.882-57.882-57.882h-11.576v-97.6c0-29.213-23.682-52.894-52.894-52.894H363.482
		c-29.213,0-52.894,23.682-52.894,52.894v479.624h-23.153c-12.787,0-23.153,10.366-23.153,23.153v0h439.906v0
		c0-12.787-10.366-23.153-23.153-23.153h-23.153V407.812h11.576c19.181,0,34.729,15.549,34.729,34.729V672.99
		c0,31.618,24.906,58.216,56.516,58.947c32.55,0.753,59.249-25.484,59.249-57.867V368.753L736.047,272.853z M567.718,700.235
		H387.012V492.424h180.706V700.235z M588.424,419.388H380.047V280.784h208.376V419.388z M798.118,465.21
		c0,3.83-4.467,5.923-7.41,3.47c-1.03-0.858-1.626-2.13-1.626-3.47v-99.28l9.035,12.047V465.21z"/>
	<g>
		<polygon style="fill:#FFFFFF;" points="530.712,599.636 479.456,579.922 479.456,630.592 		"/>
		<polygon style="fill:#FFFFFF;" points="476.243,575.659 476.243,509.69 423.556,596.319 		"/>
		<polygon style="fill:#FFFFFF;" points="479.456,576.483 531.119,596.352 479.456,509.741 		"/>
		<polygon style="fill:#FFFFFF;" points="532.451,598.585 532.451,598.585 532.45,598.586 		"/>
		<polygon style="fill:#FFFFFF;" points="476.243,629.994 476.243,579.107 423.95,599.614 		"/>
		<polygon style="fill:#FFFFFF;" points="476.243,641.51 423.784,609.827 476.243,683.332 		"/>
		<polygon style="fill:#FFFFFF;" points="422.178,598.585 422.178,598.585 422.179,598.585 		"/>
		<polygon style="fill:#FFFFFF;" points="479.456,641.562 479.456,683.286 534.057,610.362 		"/>
	</g>
</g>
</svg>
