<svg id="Layer_1" data-name="Layer 1" xmlns="http://www.w3.org/2000/svg" viewBox="0 0 1024 1024"><defs><style>.cls-1{fill:#34495E;}.cls-2{fill:#fff;}</style></defs><title>1024-01</title><rect class="cls-1" width="1024" height="1024" rx="129.8" ry="129.8"/><path class="cls-2" d="M782.83,215.16h0a28.72,28.72,0,0,0-2.7,40.52l49.37,56.44v142.4a28.74,28.74,0,0,0,28.74,28.74V712.11c0,23.34-18.11,43.25-41.44,44.14A43.16,43.16,0,0,1,772,713.17V425.79a71.85,71.85,0,0,0-71.85-71.85H685.81V232.8a65.65,65.65,0,0,0-65.65-65.65H320.39a65.65,65.65,0,0,0-65.65,65.65V828.12H226a28.74,28.74,0,0,0-28.74,28.74h546a28.74,28.74,0,0,0-28.74-28.74H685.81V382.68h14.37a43.11,43.11,0,0,1,43.11,43.11v286c0,39.25,30.91,72.26,70.15,73.17A71.91,71.91,0,0,0,887,713.17v-379ZM573.89,745.64H349.6V487.7h224.3ZM599.59,397H341V225H599.59Zm260.28,56.87a5.61,5.61,0,0,1-11.21,0V330.69l11.21,15Z"/><polygon class="cls-2" points="527.96 620.78 464.34 596.31 464.34 659.2 527.96 620.78"/><polygon class="cls-2" points="460.35 591.02 460.35 509.13 394.96 616.66 460.35 591.02"/><polygon class="cls-2" points="464.34 592.04 528.47 616.7 464.34 509.2 464.34 592.04"/><polygon class="cls-2" points="530.12 619.47 530.12 619.47 530.12 619.47 530.12 619.47"/><polygon class="cls-2" points="460.35 658.46 460.35 595.3 395.44 620.75 460.35 658.46"/><polygon class="cls-2" points="460.35 672.75 395.24 633.42 460.35 724.66 460.35 672.75"/><polygon class="cls-2" points="393.25 619.47 393.25 619.47 393.25 619.47 393.25 619.47"/><polygon class="cls-2" points="464.34 672.82 464.34 724.61 532.11 634.09 464.34 672.82"/></svg>