<?xml version="1.0"?>

<svg width="20px" height="14px" viewBox="0 0 20 14" version="1.1" xmlns="http://www.w3.org/2000/svg" xmlns:xlink="http://www.w3.org/1999/xlink">
    <g id="Page-1" stroke="none" stroke-width="1" fill="none" fill-rule="evenodd">
        <g id="Opt-1---Mobile" transform="translate(-292.000000, -24.000000)" fill="#2FB999" fill-rule="nonzero">
            <path d="M312,35.4667166 C312,35.4667166 310.544521,37.8833356 306.760274,38 C306.760274,38 306.143836,37.2833475 305.630137,36.6500266 C307.873288,36.0333721 308.729452,34.6667324 308.729452,34.6667324 C308.027397,35.1167235 307.359589,35.4333839 306.760274,35.6500463 C303.071008,37.1582197 298.965566,36.6420841 296.075342,35.0667245 C296.040561,35.0441338 295.625187,34.8216772 295.373288,34.650066 C295.373288,34.650066 296.195205,35.9833731 298.369863,36.6166939 C297.856164,37.2500148 297.222603,38 297.222603,38 C293.438356,37.8833356 292,35.4667166 292,35.4667166 C292,30.1001557 294.465753,25.7502414 294.465753,25.7502414 C296.931507,23.9502769 299.277397,24.0001374 299.277397,24.0001374 L299.44863,24.200272 C296.366438,25.0669215 294.945205,26.3835623 294.945205,26.3835623 C294.945205,26.3835623 295.321918,26.1835662 295.955479,25.9002385 C299.90106,24.2133576 304.679059,24.2137483 308.746575,26.3835623 C308.746575,26.3835623 307.393836,25.1335869 304.482877,24.2669373 L304.722603,24.0001374 C304.722603,24.0001374 307.068493,23.9502769 309.534247,25.7502414 C309.534247,25.7502414 312,30.1001557 312,35.4667166 Z M306.615385,32.1667239 C306.615385,31.0981658 305.766968,30.2222986 304.692308,30.2222986 C303.617647,30.2222986 302.769231,31.0981658 302.769231,32.1667239 C302.769231,33.235282 303.636501,34.1111493 304.692308,34.1111493 C305.766968,34.1111493 306.615385,33.235282 306.615385,32.1667239 Z M298.538311,30.2222986 C297.463734,30.2222986 296.615385,31.0981658 296.615385,32.1667239 C296.615385,33.235282 297.482587,34.1111493 298.538311,34.1111493 C299.612887,34.1111493 300.461237,33.235282 300.461237,32.1667239 C300.480089,31.0981658 299.612887,30.2222986 298.538311,30.2222986 Z" id="Combined-Shape"></path>
        </g>
    </g>
</svg>