<?xml version="1.0"?>
<svg xmlns="http://www.w3.org/2000/svg" xmlns:xlink="http://www.w3.org/1999/xlink" version="1.1" viewBox="0 0 224 224" width="50px" height="50px"><g fill="none" fill-rule="nonzero" stroke="none" stroke-width="1" stroke-linecap="butt" stroke-linejoin="miter" stroke-miterlimit="10" stroke-dasharray="" stroke-dashoffset="0" font-family="none" font-weight="none" font-size="none" text-anchor="none" style="mix-blend-mode: normal"><path d="M0,224v-224h224v224z" fill="none"/><g fill="#ffffff"><g id="surface1"><path d="M186.48,48.2475c-17.8325,-14.35 -46.0425,-16.7825 -47.25,-16.87c-1.8725,-0.1575 -3.6575,0.8925 -4.4275,2.625c-0.07,0.105 -0.6825,1.5225 -1.365,3.7275c11.795,1.995 26.285,6.0025 39.3925,14.14c2.1,1.295 2.7475,4.06 1.4525,6.16c-0.8575,1.3825 -2.31,2.135 -3.815,2.135c-0.805,0 -1.6275,-0.2275 -2.3625,-0.6825c-22.54,-13.9825 -50.68,-14.6825 -56.105,-14.6825c-5.425,0 -33.5825,0.7 -56.105,14.6825c-2.1,1.3125 -4.865,0.665 -6.16,-1.435c-1.3125,-2.1175 -0.665,-4.865 1.435,-6.1775c13.1075,-8.12 27.5975,-12.145 39.3925,-14.1225c-0.6825,-2.2225 -1.295,-3.6225 -1.3475,-3.745c-0.7875,-1.7325 -2.555,-2.8175 -4.445,-2.625c-1.2075,0.0875 -29.4175,2.52 -47.495,17.0625c-9.4325,8.7325 -28.315,59.7625 -28.315,103.88c0,0.7875 0.21,1.54 0.595,2.2225c13.02,22.89 48.5625,28.875 56.665,29.1375c0.035,0 0.0875,0 0.14,0c1.435,0 2.7825,-0.6825 3.6225,-1.8375l8.19,-11.27c-22.1025,-5.705 -33.39,-15.4 -34.0375,-15.9775c-1.855,-1.6275 -2.03,-4.4625 -0.385,-6.3175c1.6275,-1.855 4.4625,-2.03 6.3175,-0.4025c0.2625,0.245 21.0525,17.885 61.9325,17.885c40.95,0 61.74,-17.71 61.95,-17.885c1.855,-1.61 4.6725,-1.4525 6.3175,0.42c1.6275,1.855 1.4525,4.6725 -0.4025,6.3c-0.6475,0.5775 -11.935,10.2725 -34.0375,15.9775l8.19,11.27c0.84,1.155 2.1875,1.8375 3.6225,1.8375c0.0525,0 0.105,0 0.14,0c8.1025,-0.2625 43.645,-6.2475 56.665,-29.1375c0.385,-0.6825 0.595,-1.435 0.595,-2.2225c0,-44.1175 -18.8825,-95.1475 -28.56,-104.0725zM82.88,134.4c-8.6625,0 -15.68,-8.015 -15.68,-17.92c0,-9.905 7.0175,-17.92 15.68,-17.92c8.6625,0 15.68,8.015 15.68,17.92c0,9.905 -7.0175,17.92 -15.68,17.92zM141.12,134.4c-8.6625,0 -15.68,-8.015 -15.68,-17.92c0,-9.905 7.0175,-17.92 15.68,-17.92c8.6625,0 15.68,8.015 15.68,17.92c0,9.905 -7.0175,17.92 -15.68,17.92z"/></g></g></g></svg>
