<?xml version="1.0"?>

<svg width="26px" height="18px" viewBox="0 0 26 18" version="1.1" xmlns="http://www.w3.org/2000/svg" xmlns:xlink="http://www.w3.org/1999/xlink">
    <g id="Page-1" stroke="none" stroke-width="1" fill="none" fill-rule="evenodd">
        <g id="Opt-1" transform="translate(-280.000000, -35.000000)" fill="#25354E" fill-rule="nonzero">
            <g id="Group" transform="translate(280.000000, 33.000000)">
                <path d="M26,16.7428894 C26,16.7428894 24.1078767,19.8500015 19.1883562,20 C19.1883562,20 18.3869863,19.0785805 17.7191781,18.2643029 C20.635274,17.4714536 21.7482877,15.7143281 21.7482877,15.7143281 C20.8356164,16.2928938 19.9674658,16.7000326 19.1883562,16.9786013 C14.3923106,18.9177004 9.05523598,18.2540909 5.29794521,16.2286087 C5.25272902,16.1995633 4.71274347,15.9135449 4.38527397,15.6928998 C4.38527397,15.6928998 5.45376712,17.4071685 8.28082192,18.2214462 C7.6130137,19.0357238 6.78938356,20 6.78938356,20 C1.86986301,19.8500015 -2.84217094e-14,16.7428894 -2.84217094e-14,16.7428894 C-2.84217094e-14,9.84295763 3.20547945,4.25015582 3.20547945,4.25015582 C6.4109589,1.935893 9.46061644,2 9.46061644,2 L9.68321918,2.25731839 C5.67636986,3.37159308 3.82876712,5.06443347 3.82876712,5.06443347 C3.82876712,5.06443347 4.31849315,4.80729316 5.14212329,4.44301105 C10.2713774,2.274143 16.4827764,2.27464523 21.7705479,5.06443347 C21.7705479,5.06443347 20.0119863,3.45730652 16.2277397,2.34303183 L16.5393836,2 C16.5393836,2 19.5890411,1.935893 22.7945205,4.25015582 C22.7945205,4.25015582 26,9.84295763 26,16.7428894 Z M19,12.5 C19,11.1261261 17.8970588,10 16.5,10 C15.1029412,10 14,11.1261261 14,12.5 C14,13.8738739 15.127451,15 16.5,15 C17.8970588,15 19,13.8738739 19,12.5 Z M8.49980392,10 C7.10285467,10 6,11.1261261 6,12.5 C6,13.8738739 7.12736255,15 8.49980392,15 C9.89675318,15 10.9996078,13.8738739 10.9996078,12.5 C11.0241157,11.1261261 9.89675318,10 8.49980392,10 Z" id="Combined-Shape"></path>
            </g>
        </g>
    </g>
</svg>