<?xml version="1.0"?>

<svg width="24px" height="24px" viewBox="0 0 24 24" version="1.1" xmlns="http://www.w3.org/2000/svg" xmlns:xlink="http://www.w3.org/1999/xlink">
    <g id="Page-1" stroke="none" stroke-width="1" fill="none" fill-rule="evenodd">
        <g id="Opt-1" transform="translate(-1193.000000, -33.000000)" fill="#25354E" fill-rule="nonzero">
            <g id="Group" transform="translate(280.000000, 33.000000)">
                <g id="Globe-Americas" transform="translate(913.000000, 0.000000)">
                    <path d="M11.625,0.375 C5.20453125,0.375 0,5.57953125 0,12 C0,18.4204688 5.20453125,23.625 11.625,23.625 C18.0454688,23.625 23.25,18.4204688 23.25,12 C23.25,5.57953125 18.0454688,0.375 11.625,0.375 Z M15.4823437,17.1375 C15.2995313,17.319375 15.1078125,17.5101562 14.9521875,17.66625 C14.8120312,17.806875 14.713125,17.9803125 14.6629687,18.1682812 C14.5921875,18.4335937 14.535,18.7017187 14.439375,18.9590625 L13.6242188,21.1551562 C12.9792188,21.2957812 12.3117188,21.375 11.625,21.375 L11.625,20.0915625 C11.7042188,19.5 11.266875,18.391875 10.5642188,17.6892187 C10.2829688,17.4079687 10.125,17.0264062 10.125,16.6284375 L10.125,15.1279687 C10.125,14.5823437 9.83109375,14.0807813 9.3534375,13.816875 C8.67984375,13.4442187 7.72171875,12.9234375 7.06546875,12.5929687 C6.52734375,12.3220312 6.02953125,11.9770312 5.581875,11.5734375 L5.544375,11.5396875 L5.54437497,11.5396875 C5.22424825,11.2507204 4.94002029,10.9243172 4.69781247,10.5675 C4.25812497,9.92203123 3.54187497,8.86031248 3.07640622,8.17031248 C4.03593747,6.03749998 5.76515622,4.32468748 7.91390622,3.39421873 L9.03937497,3.95718748 C9.53812497,4.20656248 10.125,3.84421873 10.125,3.28640623 L10.125,2.75671873 C10.4995312,2.69624998 10.880625,2.65781248 11.2682812,2.64328123 L12.5948437,3.96984373 C12.8878125,4.26281248 12.8878125,4.73765623 12.5948437,5.03062498 L12.375,5.24999998 L11.8903125,5.73468748 C11.7440625,5.88093748 11.7440625,6.11859373 11.8903125,6.26484373 L12.1101562,6.48468748 C12.2564062,6.63093748 12.2564062,6.86859373 12.1101562,7.01484373 L11.7351562,7.38984373 L11.7351562,7.38984371 C11.6647467,7.46011684 11.5693219,7.49956825 11.4698437,7.49953121 L11.0484375,7.49953121 C10.9509375,7.49953121 10.8571875,7.53749996 10.786875,7.60593746 L10.321875,8.05828121 L10.321875,8.05828118 C10.2049205,8.17217008 10.17498,8.34858977 10.2478125,8.49468743 L10.9785938,9.95671868 C11.1032813,10.2060937 10.921875,10.4995312 10.6434375,10.4995312 L10.3790625,10.4995312 C10.2885938,10.4995312 10.2014063,10.4667187 10.1334375,10.4076562 L9.69843752,10.0298437 L9.69843755,10.0298437 C9.49816833,9.85610479 9.22111411,9.80087198 8.9695313,9.8845312 L7.50843755,10.3715625 L7.50843757,10.3715624 C7.27966929,10.4478426 7.12539616,10.6619742 7.12546882,10.9031249 C7.12546882,11.1154687 7.24546882,11.3090624 7.43531257,11.4042187 L7.95468757,11.6639062 C8.39578132,11.8846874 8.88234382,11.9995312 9.37546882,11.9995312 C9.86859382,11.9995312 10.4343751,13.2787499 10.8754688,13.4995312 L14.0043751,13.4995312 C14.4023438,13.4995312 14.7834376,13.6574999 15.0651563,13.9387499 L15.7068751,14.5804687 L15.7068751,14.5804687 C15.9749621,14.8486579 16.1254689,15.2123578 16.1254689,15.5915625 L16.1254689,15.5915844 C16.1252685,16.1719297 15.8938177,16.728275 15.4823298,17.1375172 L15.4823437,17.1375 Z M19.546875,12.8554688 C19.2754688,12.7875 19.03875,12.6210938 18.8835938,12.388125 L18.0407813,11.1239062 L18.0407813,11.1239064 C17.7885948,10.7461946 17.7885948,10.2538079 18.0407812,9.87609386 L18.9590624,8.49890636 C19.0678124,8.33625011 19.2168749,8.20406261 19.3921874,8.11687511 L20.0006249,7.81265636 C20.6343749,9.07453136 20.9999999,10.4939064 20.9999999,12.0000001 C20.9999999,12.4064064 20.9653124,12.8043751 20.9146874,13.1971876 L19.5468749,12.8554689 L19.546875,12.8554688 Z" id="Shape"></path>
                </g>
            </g>
        </g>
    </g>
</svg>