<?xml version="1.0"?>

<svg width="23px" height="18px" viewBox="0 0 23 18" version="1.1" xmlns="http://www.w3.org/2000/svg" xmlns:xlink="http://www.w3.org/1999/xlink">
    <g id="Page-1" stroke="none" stroke-width="1" fill="none" fill-rule="evenodd">
        <g id="Opt-1" transform="translate(-335.000000, -35.000000)" fill="#25354E" fill-rule="nonzero">
            <g id="Group" transform="translate(280.000000, 33.000000)">
                <path d="M75.2381251,6.48553627 C75.2518751,6.67945701 75.2518751,6.88030348 75.2518751,7.07422422 C75.2518751,13.0788413 70.7143751,19.9976562 62.423125,19.9976562 C59.865625,19.9976562 57.4937499,19.2496762 55.4999999,17.9614885 C55.8643749,18.0030429 56.2149999,18.0168944 56.5862499,18.0168944 C58.696875,18.0168944 60.635625,17.2966174 62.1825,16.077687 C60.2025,16.0361326 58.53875,14.7271676 57.9681249,12.926475 C58.6625,13.0303611 59.288125,13.0303611 60.003125,12.8433661 C57.9406249,12.420896 56.3937499,10.5925005 56.3937499,8.3831892 L56.3937499,8.32778327 C56.9918749,8.66714456 57.6931249,8.87491678 58.42875,8.90261974 L58.4287497,8.90261958 C57.1725841,8.06089277 56.4187816,6.64097743 56.4212497,5.12116521 C56.4212497,4.27622486 56.6412497,3.50054191 57.0331247,2.82874507 C59.2537497,5.58518983 62.5881248,7.38588239 66.3281248,7.57980313 C65.6887498,4.49784855 67.9781248,1.9976562 70.7281248,1.9976562 C72.0274999,1.9976562 73.1962499,2.5447897 74.0212499,3.4312845 C75.0387499,3.23736376 76.0149999,2.85644803 76.8812499,2.33701749 C76.5443749,3.38973006 75.8362499,4.27622486 74.9012499,4.83720984 C75.8087499,4.74024948 76.6887499,4.48399707 77.4999999,4.1307843 C76.8881249,5.03805632 76.1181249,5.84144223 75.2381249,6.48553611 L75.2381251,6.48553627 Z" id="Path"></path>
            </g>
        </g>
    </g>
</svg>