<?xml version="1.0"?>

<svg width="17px" height="14px" viewBox="0 0 17 14" version="1.1" xmlns="http://www.w3.org/2000/svg" xmlns:xlink="http://www.w3.org/1999/xlink">
    <g id="Page-1" stroke="none" stroke-width="1" fill="none" fill-rule="evenodd">
        <g id="Opt-1---Mobile" transform="translate(-342.000000, -24.000000)" fill="#2FB999" fill-rule="nonzero">
            <path d="M357.252188,27.4905734 C357.262813,27.6414006 357.262813,27.7976146 357.262813,27.9484418 C357.262813,32.6186995 353.756563,38 347.349688,38 C345.373438,38 343.540625,37.4182378 342,36.416314 C342.281563,36.4486341 342.5525,36.4594075 342.839375,36.4594075 C344.470313,36.4594075 345.968438,35.899192 347.16375,34.9511351 C345.63375,34.918815 344.348125,33.9007311 343.907188,32.5001924 C344.44375,32.5809927 344.927188,32.5809927 345.479688,32.4355522 C343.885938,32.1069643 342.690625,30.6848789 342.690625,28.9665257 L342.690625,28.9234322 C343.152813,29.1873798 343.694688,29.3489805 344.263125,29.3705272 L344.263125,29.3705271 C343.292451,28.7158507 342.709968,27.6114721 342.711875,26.4293959 C342.711875,25.7722201 342.881875,25.1689111 343.184687,24.6464025 C344.900625,26.7903039 347.477187,28.1908426 350.367187,28.3416698 C349.873125,25.9445941 351.642187,24 353.767187,24 C354.77125,24 355.674375,24.4255483 356.311875,25.1150442 C357.098125,24.964217 357.8525,24.6679492 358.521875,24.2639477 C358.261562,25.0827241 357.714375,25.7722201 356.991875,26.2085417 C357.693125,26.1331281 358.373125,25.9338207 359,25.6590996 C358.527187,26.3647557 357.932187,26.9896114 357.252187,27.4905733 L357.252188,27.4905734 Z" id="Path"></path>
        </g>
    </g>
</svg>