<?xml version="1.0"?>
<svg xmlns="http://www.w3.org/2000/svg" xmlns:xlink="http://www.w3.org/1999/xlink" version="1.1" viewBox="0 0 224 224" width="30px" height="30px"><g fill="none" fill-rule="nonzero" stroke="none" stroke-width="1" stroke-linecap="butt" stroke-linejoin="miter" stroke-miterlimit="10" stroke-dasharray="" stroke-dashoffset="0" font-family="none" font-weight="none" font-size="none" text-anchor="none" style="mix-blend-mode: normal"><path d="M0,224v-224h224v224z" fill="none"/><g fill="#ffffff"><path d="M209.06667,51.79627c-7.1456,3.17333 -14.82133,5.3088 -22.87787,6.272c8.22827,-4.928 14.5376,-12.73067 17.50933,-22.03413c-7.69067,4.56213 -16.2176,7.87733 -25.29707,9.66933c-7.26507,-7.74293 -17.61387,-12.58133 -29.06773,-12.58133c-21.9968,0 -39.8272,17.83787 -39.8272,39.8272c0,3.12107 0.3584,6.16747 1.0304,9.072c-33.09973,-1.6576 -62.44373,-17.5168 -82.096,-41.6192c-3.41973,5.88373 -5.38347,12.7232 -5.38347,20.03307c0,13.81333 7.02613,26.0064 17.71093,33.14453c-6.52587,-0.20907 -12.67093,-2.00107 -18.03947,-4.98027c0,0.17173 0,0.32853 0,0.50027c0,19.30133 13.72373,35.39947 31.94987,39.05067c-3.3376,0.91093 -6.86187,1.39627 -10.49813,1.39627c-2.56107,0 -5.0624,-0.25387 -7.48907,-0.70933c5.06987,15.82187 19.7792,27.34293 37.2064,27.664c-13.62667,10.6848 -30.8,17.05387 -49.46667,17.05387c-3.21067,0 -6.384,-0.18667 -9.50507,-0.56c17.6288,11.29707 38.55787,17.89013 61.05493,17.89013c73.26293,0 113.31413,-60.68907 113.31413,-113.3216c0,-1.7248 -0.03733,-3.44213 -0.112,-5.152c7.78773,-5.6224 14.54507,-12.6336 19.88373,-20.61547z"/></g></g></svg>
